<svg width="29" height="36" fill="none" xmlns="http://www.w3.org/2000/svg"><path d="M3.188 12.21l-1.486-1.473a2.038 2.038 0 010-2.9c.807-.8 2.122-.8 2.929 0L6.218 9.41a14.58 14.58 0 015.52-2.311v-2.04h-1.38a.687.687 0 01-.691-.683V2.598c0-1.131.929-2.051 2.071-2.051h5.524c1.142 0 2.071.92 2.071 2.05v1.778a.687.687 0 01-.69.684h-1.381v2.039a14.578 14.578 0 015.52 2.31l1.587-1.57c.807-.8 2.121-.8 2.93 0a2.04 2.04 0 010 2.9l-1.487 1.471A14.252 14.252 0 0129 21.192c0 7.915-6.505 14.355-14.5 14.355S0 29.107 0 21.192c0-3.277 1.128-6.442 3.188-8.983zm.467-3.406a.696.696 0 00-.977 0 .68.68 0 000 .967l1.427 1.412c.322-.327.659-.638 1.01-.934l-1.46-1.445zm14.297-6.206a.688.688 0 00-.69-.684h-5.524c-.38 0-.69.307-.69.684v1.094h6.904V2.598zm-4.833 2.46v1.843a15.006 15.006 0 012.762 0V5.059h-2.762zm13.203 3.746a.696.696 0 00-.977 0l-1.46 1.445c.351.296.688.607 1.01.934l1.427-1.412a.68.68 0 000-.967zM14.5 34.18c7.234 0 13.119-5.827 13.119-12.988 0-3.16-1.158-6.204-3.262-8.572A13.177 13.177 0 0014.5 8.203a13.179 13.179 0 00-7.936 2.645 13.19 13.19 0 00-1.921 1.772 12.898 12.898 0 00-3.262 8.572c0 7.161 5.885 12.988 13.119 12.988z"/><path d="M14.5 23.242a2.063 2.063 0 01-2.072-2.05c0-.892.577-1.651 1.38-1.934v-4.902c0-.378.31-.684.691-.684.382 0 .69.306.69.684v4.902a2.056 2.056 0 011.382 1.934c0 1.13-.93 2.05-2.072 2.05zm0-2.734a.687.687 0 00-.691.684c0 .377.31.683.69.683.381 0 .69-.306.69-.683a.688.688 0 00-.69-.684z"/><path d="M7.144 13.98c.011-.013.022-.026.034-.037a10.417 10.417 0 014.392-2.588c.366-.107.75.1.858.462a.683.683 0 01-.467.85 9.025 9.025 0 00-3.297 1.78l.465.46c.27.268.27.7 0 .968a.692.692 0 01-.976 0l-.467-.463a8.758 8.758 0 00-2.136 5.096h.664c.381 0 .69.306.69.683a.687.687 0 01-.69.684H5.55a8.757 8.757 0 002.136 5.096l.467-.463a.696.696 0 01.976 0c.27.267.27.7 0 .967l-.466.462a8.941 8.941 0 005.146 2.115v-.657c0-.378.31-.684.69-.684.382 0 .691.306.691.684v.657a8.939 8.939 0 005.147-2.115l-.467-.462a.679.679 0 010-.967.696.696 0 01.977 0l.467.463a8.757 8.757 0 002.136-5.096h-.665a.687.687 0 01-.69-.684c0-.377.31-.683.69-.683h.665a8.757 8.757 0 00-2.136-5.096l-.467.463a.692.692 0 01-.977 0 .68.68 0 010-.967l.466-.461a9.02 9.02 0 00-3.298-1.78.683.683 0 01-.466-.85.691.691 0 01.857-.462 10.413 10.413 0 014.393 2.587l.033.037a10.132 10.132 0 013.002 7.212 10.13 10.13 0 01-3.002 7.212.531.531 0 01-.034.037 10.34 10.34 0 01-7.322 3.005 10.34 10.34 0 01-7.284-2.971l-.037-.034c-.012-.011-.022-.024-.033-.036a10.132 10.132 0 01-3.002-7.213c0-2.718 1.066-5.277 3.001-7.211z"/><path d="M14.5 12.305a.687.687 0 01-.69-.684c0-.377.309-.683.69-.683.381 0 .69.306.69.683a.688.688 0 01-.69.684z"/></svg>
