<svg width="466" height="385" fill="none" xmlns="http://www.w3.org/2000/svg"><path opacity=".2" d="M478.156 4.956L261.725 379.825 45.295 4.956h432.861z" stroke="#fff"/><path opacity=".2" d="M257.584 161.234L131.077 380.35 4.57 161.234h253.014z" stroke="#fff"/><path d="M44.724 8.333a3.943 3.943 0 100-7.886 3.943 3.943 0 000 7.886zM4.504 165.268a3.943 3.943 0 100-7.886 3.943 3.943 0 000 7.886zm126.967 219.236a3.943 3.943 0 100-7.885 3.943 3.943 0 000 7.885zm130.122-.789a3.943 3.943 0 100-7.885 3.943 3.943 0 000 7.885z" fill="#fff"/></svg>