<svg width="642" height="487" fill="none" xmlns="http://www.w3.org/2000/svg"><path opacity=".2" d="M636.365 5.5L348 481.036 59.636 5.5h576.729z" stroke="#fff"/><path opacity=".2" d="M342.853 203.75L174 482.036 5.147 203.75h337.706z" stroke="#fff"/><path d="M59 10a5 5 0 100-10 5 5 0 000 10zM5.5 209c3.038 0 5.5-2.239 5.5-5s-2.462-5-5.5-5-5.5 2.239-5.5 5 2.462 5 5.5 5zm169 278c3.038 0 5.5-2.239 5.5-5s-2.462-5-5.5-5-5.5 2.239-5.5 5 2.462 5 5.5 5zm173.5-1a5 5 0 10-.001-10.001A5 5 0 00348 486zM637 10a5 5 0 100-10 5 5 0 000 10z" fill="#fff"/></svg>