<svg width="480" height="385" fill="none" xmlns="http://www.w3.org/2000/svg">
  <path opacity=".2" d="M478.156 4.95618L261.725 379.825L45.2949 4.95622L478.156 4.95618Z" stroke="#fff" />
  <path opacity=".2" d="M257.584 161.234L131.077 380.35L4.57031 161.234H257.584Z" stroke="#fff" />
  <path
    d="M44.7239 8.33332C46.9016 8.33332 48.6669 6.56794 48.6669 4.39023C48.6669 2.21253 46.9016 0.447144 44.7239 0.447144C42.5461 0.447144 40.7808 2.21253 40.7808 4.39023C40.7808 6.56794 42.5461 8.33332 44.7239 8.33332Z"
    fill="#fff" />
  <path
    d="M4.50413 165.268C6.68183 165.268 8.44722 163.503 8.44722 161.325C8.44722 159.147 6.68183 157.382 4.50413 157.382C2.32642 157.382 0.561035 159.147 0.561035 161.325C0.561035 163.503 2.32642 165.268 4.50413 165.268Z"
    fill="#fff" />
  <path
    d="M131.471 384.504C133.649 384.504 135.414 382.739 135.414 380.561C135.414 378.383 133.649 376.618 131.471 376.618C129.293 376.618 127.528 378.383 127.528 380.561C127.528 382.739 129.293 384.504 131.471 384.504Z"
    fill="#fff" />
  <path
    d="M261.593 383.715C263.771 383.715 265.536 381.95 265.536 379.772C265.536 377.594 263.771 375.829 261.593 375.829C259.415 375.829 257.65 377.594 257.65 379.772C257.65 381.95 259.415 383.715 261.593 383.715Z"
    fill="#fff" />
</svg>
